<svg xmlns="http://www.w3.org/2000/svg" xmlns:svg="http://www.w3.org/2000/svg" id="SVGRoot" width="128" height="128" version="1.1" viewBox="0 0 128 128"><metadata id="metadata135"/><g id="layer1"><g id="g114" transform="matrix(0.17017484,0,0,0.17017484,-6.1202472,8.8405257)"><title id="title72">Layer 1</title><g id="svg_43" stroke="null"><g id="svg_26" stroke="null" transform="matrix(17.846691,0,0,17.846691,29.565172,14.791875)"><path id="svg_27" fill="#76b900" stroke="null" d="m 25.346184,19.308908 c 0,3.217 -2.617,5.834 -5.834,5.834 -3.217,0 -5.833,-2.617 -5.833,-5.834 0,-3.217 2.616,-5.834 5.833,-5.834 3.217,0 5.834,2.618 5.834,5.834 z m 12.253,-8.284 v 16.57 c 0,2.209 -1.791,4 -4,4 h -28.174 c -2.209,0 -4,-1.791 -4,-4 v -16.57 c 0,-2.209 1.791,-4 4,-4 h 4.92 v -1.384 c 0,-1.933 1.566,-3.5 3.5,-3.5 h 11.334 c 1.934,0 3.5,1.567 3.5,3.5 v 1.383 h 4.92 c 2.209,0.001 4,1.792 4,4.001 z m -9.253,8.284 c 0,-4.871 -3.963,-8.834 -8.834,-8.834 -4.87,0 -8.833,3.963 -8.833,8.834 0,4.871 3.963,8.834 8.833,8.834 4.871,0 8.834,-3.963 8.834,-8.834 z"/></g></g><g id="svg_1" transform="translate(20.673852,32.422989)"><g id="svg_2"><path id="svg_3" fill="#fff" d="m 721.827,397.347 -80.213,-88.149 c -15.872,-15.872 -41.728,-15.893 -57.749,0.128 -5.077,5.077 -8.533,11.157 -10.325,17.643 -15.957,-12.224 -38.976,-11.008 -53.675,3.691 -5.056,5.077 -8.512,11.157 -10.347,17.621 -15.957,-12.181 -38.976,-10.987 -53.653,3.712 -4.971,4.971 -8.384,10.901 -10.24,17.216 l -37.803,-37.803 c -15.872,-15.872 -41.728,-15.893 -57.749,0.128 -15.893,15.872 -15.893,41.728 0,57.621 l 145.237,145.237 -86.144,13.525 c -23.275,3.328 -40.832,23.552 -40.832,47.083 0,17.643 14.357,32 32,32 h 201.152 c 31.339,0 60.8,-12.203 82.965,-34.368 l 33.557,-33.557 c 22.144,-22.123 34.325,-51.563 34.325,-82.859 0,-29.227 -10.837,-57.237 -30.506,-78.869 z"/></g></g><g id="svg_4" transform="matrix(1.4351084,0,0,1.4351084,-163.23809,-155.11789)"><g id="svg_5"><path id="svg_6" fill="#fff" d="M 466.381,320.931 C 450.851,286.563 416.547,264.333 379,264.333 c -52.928,0 -96,43.072 -96,96 0,37.547 22.229,71.851 56.597,87.403 1.429,0.64 2.923,0.939 4.395,0.939 4.053,0 7.936,-2.347 9.728,-6.272 2.411,-5.376 0.021,-11.691 -5.333,-14.123 -26.752,-12.096 -44.053,-38.763 -44.053,-67.947 0,-41.173 33.493,-74.667 74.667,-74.667 29.184,0 55.851,17.301 67.947,44.053 2.411,5.376 8.747,7.787 14.101,5.333 5.375,-2.431 7.764,-8.745 5.332,-14.121 z"/></g></g><path id="svg_62" fill="#000" stroke="#000" stroke-width="1.5" d="M 303.5,631" opacity=".5"/></g></g></svg>